<svg xmlns="http://www.w3.org/2000/svg" xmlns:xlink="http://www.w3.org/1999/xlink" width="500" zoomAndPan="magnify" viewBox="0 0 375 374.999991" height="500" preserveAspectRatio="xMidYMid meet" version="1.0"><defs><clipPath id="c20cf8c2ea"><path d="M 9.386719 101 L 365.636719 101 L 365.636719 362.753906 L 9.386719 362.753906 Z M 9.386719 101 " clip-rule="nonzero"/></clipPath><clipPath id="1ffcf2069e"><path d="M 181 12.503906 L 194 12.503906 L 194 37 L 181 37 Z M 181 12.503906 " clip-rule="nonzero"/></clipPath></defs><g clip-path="url(#c20cf8c2ea)"><path fill="#ffffff" d="M 21.402344 350.882812 L 21.402344 339.007812 L 353.621094 339.007812 L 353.621094 350.882812 Z M 21.402344 149.042969 L 39.199219 149.042969 L 39.199219 295.480469 C 39.199219 298.773438 41.867188 301.417969 45.132812 301.417969 C 100.378906 301.417969 141.742188 316.375 164.429688 327.136719 L 21.402344 327.136719 Z M 329.890625 301.417969 C 333.160156 301.417969 335.824219 298.773438 335.824219 295.480469 L 335.824219 149.042969 L 353.621094 149.042969 L 353.621094 327.136719 L 210.523438 327.136719 C 233.164062 316.375 274.460938 301.417969 329.890625 301.417969 Z M 359.554688 137.167969 L 335.824219 137.167969 L 335.824219 107.488281 C 335.824219 104.21875 333.160156 101.550781 329.890625 101.550781 C 313.554688 101.550781 297.285156 102.804688 281.503906 105.285156 L 283.359375 117.019531 C 296.613281 114.929688 310.238281 113.75 323.957031 113.492188 L 323.957031 289.613281 C 257.773438 290.820312 212.097656 311.992188 193.445312 322.472656 L 193.445312 303.390625 L 181.578125 303.390625 L 181.578125 322.472656 C 162.925781 311.992188 117.25 290.820312 51.066406 289.613281 L 51.066406 113.492188 C 64.785156 113.75 78.410156 114.929688 91.664062 117.019531 L 93.519531 105.308594 C 77.761719 102.804688 61.46875 101.550781 45.132812 101.550781 C 41.867188 101.550781 39.199219 104.21875 39.199219 107.488281 L 39.199219 137.167969 L 15.46875 137.167969 C 12.203125 137.167969 9.539062 139.835938 9.539062 143.105469 L 9.539062 356.816406 C 9.539062 360.085938 12.203125 362.753906 15.46875 362.753906 L 359.554688 362.753906 C 362.820312 362.753906 365.484375 360.085938 365.484375 356.816406 L 365.484375 143.105469 C 365.484375 139.835938 362.820312 137.167969 359.554688 137.167969 " fill-opacity="1" fill-rule="nonzero"/></g><path fill="#ffffff" d="M 187.511719 188.140625 L 160.304688 160.914062 L 169.714844 151.5 L 183.316406 165.113281 C 185.636719 167.429688 189.390625 167.429688 191.707031 165.113281 L 205.308594 151.5 L 214.71875 160.914062 Z M 238.933594 79.636719 C 255.273438 94.292969 264.632812 115.253906 264.632812 137.167969 C 264.632812 165.484375 249.128906 191.476562 224.148438 204.996094 C 216.199219 209.3125 211.242188 217.402344 211.242188 226.121094 L 193.445312 226.144531 L 193.445312 198.992188 L 227.300781 165.113281 C 229.617188 162.792969 229.617188 159.035156 227.300781 156.71875 L 209.503906 138.910156 C 207.1875 136.589844 203.433594 136.589844 201.113281 138.910156 L 187.511719 152.519531 L 173.910156 138.910156 C 171.589844 136.589844 167.835938 136.589844 165.519531 138.910156 L 147.722656 156.71875 C 145.40625 159.035156 145.40625 162.792969 147.722656 165.113281 L 181.578125 198.992188 L 181.578125 226.167969 L 163.78125 226.214844 L 163.78125 226.121094 C 163.78125 217.402344 158.824219 209.3125 150.851562 204.996094 C 122.394531 189.578125 106.796875 158.757812 111.109375 126.480469 C 115.71875 92.066406 144.128906 64.332031 178.660156 60.484375 C 200.953125 58 222.363281 64.820312 238.933594 79.636719 Z M 163.78125 279.644531 L 163.78125 261.835938 L 211.242188 261.835938 L 211.242188 279.644531 Z M 211.242188 238.089844 L 211.242188 249.960938 L 163.78125 249.960938 L 163.78125 238.089844 Z M 99.359375 124.902344 C 94.355469 162.097656 112.359375 197.648438 145.21875 215.433594 C 149.34375 217.660156 151.917969 221.761719 151.917969 226.121094 L 151.917969 285.582031 C 151.917969 288.851562 154.582031 291.515625 157.851562 291.515625 L 217.175781 291.515625 C 220.441406 291.515625 223.105469 288.851562 223.105469 285.582031 L 223.105469 226.121094 C 223.105469 221.761719 225.679688 217.660156 229.804688 215.433594 C 258.609375 199.851562 276.5 169.84375 276.5 137.167969 C 276.5 111.871094 265.675781 87.683594 246.835938 70.800781 C 227.742188 53.6875 203.109375 45.851562 177.339844 48.679688 C 137.480469 53.109375 104.667969 85.15625 99.359375 124.902344 " fill-opacity="1" fill-rule="nonzero"/><g clip-path="url(#1ffcf2069e)"><path fill="#ffffff" d="M 193.445312 12.503906 L 181.578125 12.503906 L 181.578125 36.25 L 193.445312 36.25 L 193.445312 12.503906 " fill-opacity="1" fill-rule="nonzero"/></g><path fill="#ffffff" d="M 278.238281 43.925781 L 260.441406 61.734375 L 268.828125 70.128906 L 286.625 52.320312 L 278.238281 43.925781 " fill-opacity="1" fill-rule="nonzero"/><path fill="#ffffff" d="M 88.398438 52.320312 L 106.195312 70.128906 L 114.585938 61.734375 L 96.785156 43.925781 L 88.398438 52.320312 " fill-opacity="1" fill-rule="nonzero"/><path fill="#ffffff" d="M 312.09375 149.042969 L 288.363281 149.042969 L 288.363281 137.167969 L 312.09375 137.167969 L 312.09375 149.042969 " fill-opacity="1" fill-rule="nonzero"/><path fill="#ffffff" d="M 86.660156 149.066406 L 62.929688 149.042969 L 62.929688 137.167969 L 86.660156 137.191406 L 86.660156 149.066406 " fill-opacity="1" fill-rule="nonzero"/></svg>
