<svg xmlns="http://www.w3.org/2000/svg" xmlns:xlink="http://www.w3.org/1999/xlink" width="500" zoomAndPan="magnify" viewBox="0 0 375 374.999991" height="500" preserveAspectRatio="xMidYMid meet" version="1.0"><defs><clipPath id="fe7eca27f8"><path d="M 12.121094 7.855469 L 363 7.855469 L 363 367.105469 L 12.121094 367.105469 Z M 12.121094 7.855469 " clip-rule="nonzero"/></clipPath></defs><g clip-path="url(#fe7eca27f8)"><path fill="#ffffff" d="M 298.515625 238.417969 C 288.949219 238.417969 279.863281 240.511719 271.691406 244.273438 L 271.691406 180.992188 C 271.691406 171.234375 263.328125 163.285156 253.058594 163.285156 L 244.675781 163.285156 L 244.675781 110.289062 C 244.675781 83.03125 233.988281 57.335938 214.589844 37.917969 C 195.179688 18.535156 169.460938 7.855469 142.164062 7.855469 C 114.863281 7.855469 89.144531 18.535156 69.734375 37.917969 C 50.316406 57.34375 39.628906 83.042969 39.628906 110.289062 L 39.628906 163.285156 L 31.265625 163.285156 C 20.976562 163.285156 12.613281 171.234375 12.613281 180.992188 L 12.613281 328.253906 C 12.613281 349.675781 31.199219 367.105469 54.054688 367.105469 L 230.269531 367.105469 C 241.800781 367.105469 252.75 362.535156 260.554688 354.695312 C 271.195312 362.5 284.328125 367.105469 298.527344 367.105469 C 334.035156 367.105469 362.921875 338.238281 362.921875 302.761719 C 362.921875 267.285156 334.023438 238.417969 298.515625 238.417969 Z M 50.851562 110.289062 C 50.851562 86.046875 60.375 63.15625 77.667969 45.855469 C 94.949219 28.589844 117.847656 19.070312 142.152344 19.070312 C 166.457031 19.070312 189.355469 28.589844 206.636719 45.855469 C 223.917969 63.144531 233.441406 86.027344 233.441406 110.289062 L 233.441406 163.285156 L 220.285156 163.285156 L 220.285156 110.289062 C 220.285156 89.523438 212.132812 69.941406 197.34375 55.164062 C 182.53125 40.363281 162.933594 32.21875 142.152344 32.21875 C 121.371094 32.21875 101.773438 40.363281 86.972656 55.164062 C 72.160156 69.941406 64.007812 89.511719 64.007812 110.289062 L 64.007812 163.285156 L 50.851562 163.285156 Z M 75.242188 163.296875 L 75.242188 110.289062 C 75.242188 92.515625 82.222656 75.765625 94.917969 63.101562 C 107.601562 50.425781 124.378906 43.445312 142.164062 43.445312 C 159.9375 43.445312 176.726562 50.425781 189.410156 63.101562 C 202.082031 75.773438 209.058594 92.527344 209.058594 110.289062 L 209.058594 163.296875 Z M 83.121094 355.890625 L 84 298.792969 C 84.03125 296.546875 82.714844 294.484375 80.652344 293.574219 C 65.457031 286.875 57.511719 264.90625 57.511719 246.683594 C 57.511719 235.160156 60.671875 222.894531 65.960938 213.859375 C 72.160156 203.269531 80.53125 197.808594 90.8125 197.632812 C 98.164062 197.511719 104.746094 200.253906 110.386719 205.800781 C 121.042969 216.261719 125.792969 233.878906 125.78125 246.695312 C 125.804688 263.875 117.605469 286.042969 102.378906 293.300781 C 100.390625 294.242188 99.140625 296.25 99.171875 298.441406 L 99.976562 355.914062 L 83.121094 355.914062 Z M 183.714844 355.890625 L 184.757812 286.535156 C 184.800781 283.542969 182.484375 281.042969 179.5 280.847656 C 167.289062 280.066406 157.753906 269.894531 157.789062 257.679688 L 157.929688 199.222656 C 157.929688 198.640625 158.226562 198.257812 158.414062 198.082031 C 158.589844 197.90625 158.960938 197.621094 159.519531 197.621094 L 159.53125 197.621094 L 173.335938 197.644531 L 173.335938 258.164062 C 173.335938 261.265625 175.847656 263.777344 178.941406 263.777344 C 182.035156 263.777344 184.558594 261.265625 184.558594 258.164062 L 184.558594 197.667969 L 200.042969 197.6875 L 200.042969 258.164062 C 200.042969 261.265625 202.554688 263.777344 205.648438 263.777344 C 208.742188 263.777344 211.253906 261.265625 211.253906 258.164062 L 211.253906 197.699219 L 225.210938 197.722656 C 226.078125 197.722656 226.800781 198.464844 226.800781 199.320312 L 226.648438 257.777344 C 226.617188 270.015625 217.039062 280.167969 204.859375 280.890625 C 201.851562 281.066406 199.535156 283.566406 199.570312 286.558594 L 200.535156 355.878906 L 183.714844 355.878906 Z M 211.769531 355.890625 L 210.882812 291.347656 C 226.351562 287.949219 237.839844 274.125 237.882812 257.8125 L 238.050781 199.34375 C 238.050781 192.261719 232.300781 186.515625 225.246094 186.515625 L 206.382812 186.484375 C 206.152344 186.460938 205.910156 186.441406 205.671875 186.441406 C 205.429688 186.441406 205.199219 186.460938 204.96875 186.484375 L 179.160156 186.441406 C 179.09375 186.441406 179.03125 186.441406 178.953125 186.441406 C 178.898438 186.441406 178.832031 186.441406 178.765625 186.441406 L 159.574219 186.417969 C 159.554688 186.417969 159.53125 186.417969 159.511719 186.417969 C 156.121094 186.417969 152.914062 187.746094 150.5 190.144531 C 148.078125 192.558594 146.726562 195.769531 146.714844 199.191406 L 146.574219 257.667969 C 146.53125 273.984375 157.984375 287.851562 173.464844 291.292969 L 172.488281 355.890625 L 111.199219 355.890625 L 110.453125 301.664062 C 127.933594 291.117188 137.039062 266.617188 137.015625 246.683594 C 137.027344 232.652344 132.125 211.414062 118.265625 197.796875 C 110.507812 190.179688 100.953125 186.242188 90.617188 186.417969 C 76.351562 186.660156 64.480469 194.191406 56.285156 208.191406 C 50.019531 218.878906 46.289062 233.277344 46.289062 246.683594 C 46.289062 266.671875 54.582031 291.753906 72.730469 302.136719 L 71.898438 355.890625 L 54.054688 355.890625 C 37.398438 355.890625 23.839844 343.492188 23.839844 328.261719 L 23.839844 181.003906 C 23.839844 177.484375 27.238281 174.511719 31.265625 174.511719 L 253.058594 174.511719 C 257.074219 174.511719 260.453125 177.484375 260.453125 181.003906 L 260.453125 250.894531 C 244.5 262.625 234.121094 281.503906 234.121094 302.761719 C 234.121094 320.03125 240.96875 335.71875 252.082031 347.296875 C 246.398438 352.734375 238.554688 355.890625 230.257812 355.890625 Z M 298.515625 355.890625 C 269.199219 355.890625 245.355469 332.054688 245.355469 302.761719 C 245.355469 273.46875 269.199219 249.644531 298.515625 249.644531 C 327.835938 249.644531 351.6875 273.46875 351.6875 302.761719 C 351.6875 332.054688 327.835938 355.890625 298.515625 355.890625 Z M 331.804688 279.617188 C 334 281.8125 334 285.363281 331.804688 287.554688 L 293.457031 325.871094 C 292.363281 326.96875 290.925781 327.515625 289.488281 327.515625 C 288.050781 327.515625 286.613281 326.96875 285.515625 325.871094 L 265.226562 305.613281 C 263.042969 303.417969 263.042969 299.878906 265.226562 297.6875 C 267.421875 295.492188 270.976562 295.492188 273.171875 297.6875 L 289.476562 313.988281 L 323.863281 279.617188 C 326.058594 277.4375 329.613281 277.4375 331.804688 279.617188 Z M 331.804688 279.617188 " fill-opacity="1" fill-rule="nonzero"/></g></svg>
