<svg xmlns="http://www.w3.org/2000/svg" xmlns:xlink="http://www.w3.org/1999/xlink" width="500" zoomAndPan="magnify" viewBox="0 0 375 374.999991" height="500" preserveAspectRatio="xMidYMid meet" version="1.0"><defs><clipPath id="021ebb4fd6"><path d="M 9.664062 6.957031 L 365.164062 6.957031 L 365.164062 367.707031 L 9.664062 367.707031 Z M 9.664062 6.957031 " clip-rule="nonzero"/></clipPath></defs><g clip-path="url(#021ebb4fd6)"><path fill="#ffffff" d="M 315.058594 71.296875 C 315.132812 71.351562 315.207031 71.410156 315.277344 71.464844 C 315.207031 71.410156 315.132812 71.355469 315.058594 71.296875 C 310.132812 67.574219 303.054688 64.757812 297.441406 61.546875 C 291.753906 58.28125 296.664062 44.460938 293.179688 38.957031 C 289.695312 33.449219 287.691406 27.03125 280.058594 25.214844 C 272.429688 23.398438 265.777344 24.722656 259.089844 29.621094 C 252.398438 34.507812 254.171875 42.125 253.484375 49.078125 C 252.792969 56.035156 238.816406 50.394531 232.90625 49.972656 C 226.984375 49.554688 215.363281 47.019531 208.71875 47.296875 C 218.460938 33.675781 218.730469 5.507812 196.191406 7.027344 C 173.652344 8.550781 175.808594 33.441406 184.539062 47.296875 C 168.441406 47.753906 153.351562 52.085938 137.082031 51.773438 C 139.265625 42.519531 138.386719 30.03125 131.035156 23.800781 C 123.683594 17.582031 112.089844 16.550781 104.621094 22.011719 C 97.144531 27.460938 92.21875 36.90625 95.011719 47.28125 C 97.816406 57.652344 88.269531 60.4375 79.769531 65.199219 C 83.40625 60.707031 84.902344 47.824219 77.101562 48.210938 C 69.3125 48.605469 61.289062 46.042969 53.828125 48.21875 C 46.363281 50.386719 42.601562 55.175781 41.265625 62.511719 C 39.933594 69.851562 43.171875 77.863281 46.640625 83.996094 C 40.988281 89.078125 28.175781 92.605469 28.730469 102.792969 C 29.078125 109.21875 31.9375 115.121094 33.265625 121.457031 C 34.039062 125.167969 34.78125 158.457031 33.207031 169.921875 C 31.890625 179.539062 36.507812 187.773438 37.546875 196.824219 C 37.746094 198.5625 38.035156 236.183594 36.789062 247.792969 C 35.90625 256.039062 29.496094 259.410156 23.90625 264.449219 C 21.628906 266.503906 16.300781 275.085938 15.5625 276.695312 C 11.414062 285.734375 8.777344 295.082031 9.925781 305.078125 C 11.277344 316.855469 10.84375 322.273438 21.789062 336.179688 C 29.121094 345.496094 36.96875 349.453125 47.832031 353.113281 C 58.683594 356.785156 73.34375 355.046875 83.28125 349.757812 C 93.230469 344.476562 99.777344 338.925781 105.515625 329.019531 C 111.246094 319.101562 114.085938 306.4375 112.902344 294.335938 C 121.019531 293.226562 123.375 295.511719 123.953125 299.480469 C 124.566406 303.707031 124.886719 321.03125 123.882812 322.699219 C 121.070312 327.355469 113.226562 328.171875 109.554688 333.949219 C 104.558594 341.800781 108.800781 352.058594 117.183594 355.398438 C 125.566406 358.746094 136.417969 351.191406 135.289062 341.773438 C 134.160156 332.359375 126.316406 324.867188 130.8125 314.921875 C 131.464844 324.703125 136.050781 327.300781 136.785156 337.59375 C 137.519531 347.886719 149.429688 343.234375 157.675781 343.5625 C 165.925781 343.894531 170.492188 338.132812 175.585938 333.71875 L 175.585938 346.25 C 160.988281 353.070312 188.535156 376.816406 195.949219 363.917969 C 198.339844 359.765625 199.601562 354.960938 200.265625 349.847656 C 201.664062 339.089844 202.878906 284.175781 206.03125 269.273438 C 208.664062 277.410156 213.644531 343.5 213.265625 352.441406 C 212.882812 361.394531 221.328125 368.976562 228.695312 366.21875 C 236.058594 363.453125 245.164062 357.195312 241.179688 349.605469 C 237.183594 342.015625 238.3125 274.671875 238.269531 264.796875 C 246.480469 267.636719 243.121094 247.863281 249.839844 251.445312 C 252.480469 252.851562 253.320312 255.527344 253.425781 258.683594 C 253.59375 263.546875 255.828125 338.050781 253.492188 346.25 C 251.15625 354.449219 261.773438 360.050781 264.835938 352.21875 C 267.898438 344.386719 264.417969 263.679688 265.132812 255.847656 C 265.847656 248.015625 261.433594 244.667969 257.96875 238.839844 C 263.40625 236.945312 271 235.628906 272.296875 228.996094 C 273.59375 222.371094 272.960938 212.542969 273.191406 205.722656 C 273.425781 198.902344 269.269531 190.015625 274.984375 186.03125 C 276.046875 194.195312 277.964844 202.90625 278.574219 211.085938 C 279.050781 217.46875 280.75 224.125 280.328125 230.207031 C 280.207031 231.917969 279.109375 276.683594 279.460938 284.488281 C 279.808594 292.292969 281.894531 303.257812 282.164062 310.429688 C 282.441406 317.589844 287.707031 331.007812 278.761719 332.125 C 269.824219 333.242188 266.492188 343.4375 274.972656 346.257812 C 283.453125 349.070312 290.859375 348.15625 299.457031 348.335938 C 308.050781 348.503906 304.398438 330.917969 313.425781 335.570312 C 322.441406 340.234375 331.039062 337.335938 331.414062 328.367188 C 331.800781 319.40625 335.023438 312.136719 332.292969 303.285156 C 338.8125 300.207031 352.152344 302.589844 351.992188 292.546875 C 351.832031 282.503906 354.167969 273.722656 352.871094 263.921875 C 351.5625 254.128906 351.914062 245.929688 351.097656 236.15625 C 350.28125 226.382812 352.332031 217.65625 352.886719 208.410156 C 353.445312 199.164062 356.660156 190.839844 356.46875 181.558594 C 356.28125 172.273438 357.554688 166.796875 356.46875 157.390625 C 355.386719 147.984375 361.871094 143.964844 364.53125 135.910156 C 367.1875 127.851562 360.480469 118.832031 364.234375 111.445312 C 367.984375 104.0625 359.558594 95.863281 353.855469 91.980469 C 348.152344 88.09375 355.296875 78.492188 354.078125 71.167969 C 352.851562 63.847656 349.449219 56.9375 341.257812 54.449219 C 333.054688 51.96875 324.832031 56.742188 317.140625 54.394531 C 309.550781 52.082031 310.136719 67.328125 315.058594 71.296875 Z M 237.375 351.621094 C 236.8125 355.007812 233.589844 358.53125 229.878906 360.34375 C 226.167969 362.152344 221.972656 362.25 219.464844 358.78125 C 226.25 359.980469 232.824219 356.273438 237.375 351.621094 Z M 193.496094 359.675781 C 190.347656 362.195312 186.324219 361.851562 182.859375 360.042969 C 179.394531 358.234375 176.492188 354.960938 175.585938 351.621094 C 180.796875 355.765625 186.796875 359.539062 193.496094 359.675781 Z M 232 239.738281 C 231.148438 249.035156 232.886719 257.476562 232.894531 266.589844 C 232.90625 275.699219 235.015625 331.4375 234.097656 347.230469 C 233.703125 353.992188 221.0625 354.027344 218.429688 349.042969 C 217.476562 347.238281 211.261719 273.929688 211.414062 263.894531 C 211.566406 253.871094 201.652344 253.921875 201.617188 263.964844 C 201.582031 274.015625 195.503906 347.867188 194.324219 349.757812 C 191.5625 354.191406 185.097656 355.464844 182.078125 349.605469 C 177.769531 341.246094 182.097656 331.730469 180.074219 322.96875 C 178.039062 314.207031 181.21875 248.640625 181.855469 239.738281 C 198.582031 242.1875 215.328125 242.691406 232 239.738281 Z M 124.542969 331.929688 C 129.925781 333.464844 131.402344 339.054688 130.125 343.8125 C 128.847656 348.574219 124.8125 352.503906 119.171875 350.722656 C 107.890625 347.164062 112.699219 328.554688 124.542969 331.929688 Z M 63.652344 252.265625 C 99.578125 254.378906 119.316406 298.058594 100.144531 328.125 C 80.960938 358.179688 36.851562 355.164062 20.402344 324.148438 C 3.941406 293.128906 26.535156 250.082031 63.652344 252.265625 Z M 259.101562 347.675781 C 258.484375 342.464844 256.113281 280.996094 257.074219 258.53125 C 257.730469 243.125 236.78125 242.394531 240.058594 259.429688 C 232.117188 254.128906 241.96875 238.160156 252.613281 243.296875 C 258.605469 246.183594 260.394531 251.386719 260.816406 257.355469 C 261.144531 262.003906 260.644531 267.113281 260.65625 271.957031 C 260.683594 283.03125 264.527344 348.324219 259.101562 347.675781 Z M 123.648438 337.296875 C 121.425781 336.304688 119.316406 337.507812 118.34375 339.273438 C 117.375 341.042969 117.542969 343.378906 119.871094 344.65625 C 124.519531 347.207031 128.109375 339.285156 123.648438 337.296875 Z M 68.128906 257.636719 C 34.316406 252.152344 9.773438 289.949219 22.667969 319.191406 C 35.5625 348.433594 75.347656 353.339844 94.304688 328.554688 C 113.261719 303.769531 99.398438 262.710938 68.128906 257.636719 Z M 274.984375 340.878906 C 278.726562 334.292969 283.265625 336.214844 289.515625 337.09375 C 295.765625 337.96875 305.886719 341.746094 295.578125 343.5625 C 285.273438 345.382812 284.082031 341.085938 274.984375 340.878906 Z M 166.632812 335.507812 C 160.847656 341.808594 149.96875 337.121094 142.453125 339.984375 C 138.316406 333.019531 147.496094 332.839844 152.027344 330.753906 C 156.566406 328.679688 162.636719 333.691406 166.632812 335.507812 Z M 58.28125 339.984375 C 52.109375 338.480469 44.597656 337.136719 39.699219 332.597656 C 38.324219 331.324219 38.128906 329.976562 38.621094 328.617188 C 39.882812 325.136719 52.253906 313.417969 54.835938 311.742188 C 56.792969 310.46875 58.492188 310.160156 59.039062 312.167969 C 59.21875 312.824219 60.492188 331.050781 58.28125 339.984375 Z M 85.144531 329.242188 C 81.429688 336.851562 71.378906 338.792969 63.652344 339.984375 C 62.785156 330.648438 63.492188 313.683594 63.722656 312.777344 C 64.179688 310.988281 65.371094 310.675781 66.84375 311.246094 C 68.847656 312.019531 80.28125 325.0625 85.144531 329.242188 Z M 328.710938 221.835938 C 328.816406 229.523438 326.820312 235.816406 326.085938 243.378906 C 325.363281 250.941406 324.644531 259.578125 325.128906 267.484375 C 325.613281 275.386719 324.921875 282.109375 326.921875 289.859375 C 328.917969 297.609375 325.433594 305.917969 327.816406 314.027344 C 330.199219 322.136719 320.355469 327.925781 316.265625 321.097656 C 312.171875 314.257812 315.871094 305.820312 313.550781 298.746094 C 311.242188 291.667969 312.53125 284.632812 310.507812 277.625 C 308.480469 270.617188 309.59375 264.179688 312.53125 257.574219 C 315.457031 250.960938 314.660156 247.074219 319.683594 240.558594 C 324.71875 234.054688 320.660156 227.726562 316.378906 235.46875 C 312.101562 243.210938 311.535156 245.722656 308.722656 252.875 C 305.914062 260.019531 304.910156 264.429688 303.34375 271.664062 C 301.773438 278.894531 300.960938 287.507812 301.847656 295.230469 C 302.734375 302.953125 302.179688 310.589844 302.742188 318.503906 C 303.304688 326.414062 303.226562 336.179688 293.726562 332.886719 C 290.835938 331.886719 289.40625 330.429688 288.761719 328.675781 C 287.28125 324.667969 284.863281 286.8125 284.613281 284.414062 C 284.09375 279.507812 284.011719 274.589844 283.9375 269.273438 C 283.832031 261.359375 284.671875 253.546875 285.710938 245.984375 C 286.742188 238.410156 287.261719 231.144531 288.414062 223.625 C 301.9375 224.984375 315.84375 226.765625 328.710938 221.835938 Z M 326.023438 328.347656 C 327.355469 331.296875 322.984375 332.808594 318.199219 332.75 C 313.410156 332.691406 308.199219 331.058594 307.847656 327.722656 C 307.140625 321.042969 321.582031 331.480469 326.023438 328.347656 Z M 172.898438 326.558594 C 172.25 330.136719 168.714844 330.539062 165.097656 329.511719 C 161.476562 328.480469 157.769531 326.019531 156.78125 323.871094 C 162.421875 321.089844 167.554688 325.511719 172.898438 326.558594 Z M 118.277344 283.59375 C 114.167969 272.066406 122.59375 265.351562 131.90625 269.972656 C 135.503906 271.753906 137.257812 274.042969 138.304688 276.601562 C 139.96875 280.664062 150.089844 317.824219 150.140625 319.523438 C 150.355469 326.804688 143.429688 335.59375 138.585938 325.054688 C 132.613281 312.058594 133.390625 289.914062 118.277344 283.59375 Z M 35 326.558594 C 28.863281 321.167969 27.53125 319.792969 25.210938 310.382812 C 24.507812 307.523438 24.941406 305.84375 26.144531 304.863281 C 28.90625 302.613281 47.082031 303.160156 48.671875 303.71875 C 51.316406 304.648438 52.238281 306.632812 50.8125 309.148438 C 50.160156 310.304688 40.414062 320.105469 35 326.558594 Z M 97.679688 304.179688 C 97.84375 311.871094 95.386719 315.90625 92.039062 322.707031 C 88.679688 329.511719 72.777344 311.191406 70.144531 307.203125 C 69.699219 306.527344 69.320312 305.824219 69.027344 305.074219 C 77.695312 301.515625 88.554688 303.484375 97.679688 304.179688 Z M 172.003906 176.1875 C 173.144531 180.832031 177.0625 184.089844 177.300781 199.195312 C 177.390625 205.03125 176.980469 234.628906 176.660156 240.851562 C 176.128906 251.21875 174.421875 307.449219 174.691406 322.976562 C 163.621094 322.011719 162.484375 311.914062 160.425781 303.222656 C 158.375 294.523438 154.875 284.667969 152.320312 276.417969 C 149.777344 268.15625 146.097656 258.980469 137.007812 256.8125 C 127.929688 254.640625 131 239.953125 118.277344 240.632812 C 118.652344 232.523438 111.660156 226.09375 114.09375 217.65625 C 116.53125 209.214844 114.667969 201.410156 117.382812 193.191406 C 118.132812 199.976562 119.449219 209.0625 118.277344 216.464844 C 117.101562 223.867188 120.480469 230 125.664062 233.246094 C 130.839844 236.503906 143.90625 238.5 142.453125 230.785156 C 141.003906 223.0625 133.894531 222.757812 135.289062 213.78125 C 136.6875 204.800781 137.753906 200.566406 137.957031 191.386719 C 138.15625 182.203125 144.144531 181.90625 152.320312 181.574219 C 160.507812 181.253906 164.417969 177.441406 172.003906 176.1875 Z M 154.992188 320.292969 C 153.128906 312.128906 144.746094 282.101562 142.515625 273.6875 C 140.285156 265.261719 128.25 265.945312 125.441406 260.324219 C 134.171875 259 143.3125 264.378906 145.425781 272.566406 C 147.550781 280.757812 158.144531 308.410156 158.269531 313.617188 C 158.328125 316.1875 157.5 318.492188 154.992188 320.292969 Z M 308.113281 294.335938 C 308.511719 298.332031 309.339844 302.671875 309.765625 306.976562 C 310.191406 311.28125 310.214844 315.546875 309.011719 319.398438 C 307.578125 311.921875 305.984375 301.898438 308.113281 294.335938 Z M 63.652344 297.019531 C 65.855469 298.085938 65.953125 300.742188 64.929688 302.777344 C 63.90625 304.808594 61.757812 306.21875 59.472656 304.78125 C 54.894531 301.90625 59.078125 294.808594 63.652344 297.019531 Z M 24.253906 298.8125 C 24.503906 290.136719 28.800781 282.71875 33.207031 275.539062 C 37.855469 277.3125 53.265625 294.03125 52.957031 296.710938 C 52.832031 297.820312 51.796875 298.617188 49.316406 298.800781 C 40.855469 299.429688 32.6875 298.34375 24.253906 298.8125 Z M 97.679688 298.8125 C 90.363281 297.496094 70.273438 297.589844 70.265625 296.570312 C 70.25 293.332031 85.808594 276.472656 89.21875 277.265625 C 90.132812 277.476562 90.972656 278.226562 91.679688 279.746094 C 95.046875 286.933594 98.171875 290.613281 97.679688 298.8125 Z M 347.515625 290.753906 C 347.964844 298.355469 337.421875 296.296875 332.292969 297.019531 C 332.578125 294.03125 331.539062 290.691406 333.1875 288.070312 C 337.683594 289.851562 342.304688 291.488281 347.515625 290.753906 Z M 59.175781 263.007812 C 59.28125 271.789062 59.03125 279.15625 59.175781 288.070312 C 59.234375 291.652344 57.699219 292.078125 55.714844 291.066406 C 52.765625 289.554688 34.542969 273.542969 39.699219 269.496094 C 44.855469 265.453125 52.511719 263.027344 59.175781 263.007812 Z M 85.144531 271.957031 C 81.667969 276.113281 69.207031 289.847656 66.910156 290.984375 C 65.007812 291.921875 63.59375 291.3125 63.652344 287.175781 C 63.789062 278.035156 63.554688 271.878906 63.652344 263.007812 C 71.710938 262.945312 79.125 266.847656 85.144531 271.957031 Z M 349.304688 190.507812 C 350.363281 197.730469 347.523438 205.832031 347.21875 213.484375 C 346.914062 221.136719 344.730469 231.117188 345.726562 238.839844 C 346.71875 246.566406 347.523438 256.5625 347.515625 263.902344 C 347.507812 271.242188 350.039062 287.09375 341.246094 285.382812 C 332.453125 283.675781 337.226562 271.402344 335.175781 264.601562 C 333.125 257.796875 332.964844 248.589844 331.59375 241.328125 C 330.222656 234.0625 334.566406 225.898438 334.960938 218.238281 C 335.355469 210.566406 336.457031 200.265625 336.769531 192.296875 C 340.789062 191.144531 345.3125 191.859375 349.304688 190.507812 Z M 112.902344 283.59375 C 109.53125 281.617188 107.214844 277.792969 104.996094 273.691406 C 102.777344 269.589844 100.65625 265.210938 97.679688 262.113281 C 109.984375 262.300781 116.011719 271.464844 112.902344 283.59375 Z M 112.007812 262.113281 C 111.796875 260.570312 112.433594 259.292969 113.144531 258.035156 C 113.851562 256.777344 114.628906 255.535156 114.695312 254.058594 C 123.835938 255.148438 120.09375 270.195312 112.007812 262.113281 Z M 78.875 211.09375 C 75.285156 205.027344 60.769531 199.414062 60.070312 210.199219 C 68.621094 206.316406 73.519531 212.847656 76.878906 219.355469 C 80.238281 225.863281 81.722656 231.527344 87.160156 236.828125 C 92.59375 242.136719 95.148438 245.824219 103.671875 248.070312 C 112.207031 250.308594 108.710938 260.464844 101.054688 256.949219 C 93.398438 253.429688 87.402344 252.9375 81.832031 248.417969 C 76.261719 243.890625 71.855469 239.136719 69.25 233.246094 C 66.636719 227.359375 59.105469 217.152344 59.472656 226.015625 C 59.839844 234.875 69.402344 235.84375 69.921875 244.210938 C 62.195312 244.785156 50.972656 246.101562 52.011719 237.050781 C 53.050781 228.003906 51.484375 220.546875 52.90625 212.882812 C 54.332031 205.222656 57.222656 199.976562 64.546875 199.457031 C 71.875 198.9375 77.085938 204.835938 78.875 211.09375 Z M 126.335938 254.953125 C 124.726562 254.804688 123.59375 253.621094 122.421875 252.507812 C 121.25 251.390625 120.039062 250.347656 118.277344 250.476562 C 117.445312 241.417969 129.136719 249.214844 126.335938 254.953125 Z M 41.265625 251.371094 C 42 248.351562 42.109375 245.175781 42.207031 241.988281 C 42.300781 238.808594 42.382812 235.617188 43.058594 232.574219 C 43.792969 237.875 49.703125 250.359375 41.265625 251.371094 Z M 113.800781 246.898438 C 110.484375 245.957031 107.054688 244.660156 103.816406 243.015625 C 100.578125 241.371094 97.53125 239.378906 94.996094 237.050781 C 100.601562 241.089844 112.402344 239.789062 113.800781 246.898438 Z M 251.699219 188.71875 C 255.632812 197.480469 252.648438 206.027344 255.578125 215.273438 C 258.507812 224.519531 249.792969 229.441406 249.015625 237.945312 C 241.449219 239.503906 235.019531 241.921875 238.070312 233.273438 C 241.117188 224.628906 235.160156 218.316406 237.375 210.199219 C 239.585938 202.082031 237.167969 195.71875 239.164062 187.824219 C 243.578125 187.222656 247.421875 188.707031 251.699219 188.71875 Z M 112.007812 237.945312 C 109.988281 237.183594 107.507812 236.339844 105.652344 234.988281 C 103.796875 233.636719 102.570312 231.777344 103.054688 228.996094 C 108.382812 227.132812 115.140625 232.636719 112.007812 237.945312 Z M 217.671875 160.96875 C 205.746094 155.84375 200.472656 171.265625 208.941406 176.859375 C 217.414062 182.460938 225.042969 181.960938 233.792969 186.03125 C 234.8125 198.652344 230.261719 207.667969 232.894531 220.941406 C 235.527344 234.214844 224.59375 236.988281 213.132812 236.988281 C 201.671875 236.980469 191.605469 236.390625 180.960938 233.472656 C 180.824219 223.367188 181.136719 213.136719 180.960938 203.039062 C 180.78125 192.941406 179.0625 185.996094 177.574219 175.988281 C 176.097656 165.984375 165.207031 173.917969 158.375 175.09375 C 132.707031 179.515625 122.53125 174.589844 118.265625 173.25 C 113.996094 171.914062 110.621094 169.773438 111.113281 165.445312 C 111.664062 160.644531 115.960938 160.082031 120.882812 160.882812 C 124.828125 161.523438 129.179688 163.042969 132.308594 163.953125 C 139.335938 165.992188 150.703125 162.734375 158.285156 160.683594 C 165.863281 158.625 173.597656 155.136719 182.050781 154.007812 C 190.511719 152.886719 199.332031 150.589844 207.824219 148.441406 C 216.3125 146.292969 227.890625 149.183594 236.496094 150.210938 C 245.109375 151.242188 256.417969 151.222656 265.195312 150.292969 C 273.980469 149.363281 279.800781 146.03125 287.589844 142.246094 C 295.382812 138.460938 297.394531 133.3125 306.394531 130.609375 C 315.386719 127.898438 311.035156 140.5 304.308594 144.636719 C 297.585938 148.78125 293.832031 153.542969 286.550781 157.320312 C 279.28125 161.105469 271.617188 162.867188 263.34375 164.550781 C 255.066406 166.234375 244.609375 165.015625 236.46875 164.558594 C 228.339844 164.101562 222.832031 151.9375 217.671875 160.96875 Z M 266.921875 229.890625 C 263.171875 232.066406 258.558594 235.671875 254.386719 234.367188 C 255.058594 231.761719 257.621094 230.328125 258.863281 228.101562 C 261.398438 228.914062 264.917969 228.359375 266.921875 229.890625 Z M 95.890625 203.039062 C 99.363281 212.140625 96.972656 222.765625 97.679688 232.574219 C 84.402344 228.863281 87.203125 211.855469 80.667969 202.144531 C 85.484375 203.386719 90.757812 203.011719 95.890625 203.039062 Z M 131.707031 223.625 C 133.4375 226.132812 137.234375 228.394531 137.976562 231.679688 C 132.71875 231.824219 125.65625 229.550781 123.648438 224.519531 C 126.363281 224.289062 129.351562 225.183594 131.707031 223.625 Z M 105.738281 172.605469 C 115.785156 173.347656 113.519531 179.757812 112.964844 186.992188 C 112.410156 194.230469 109.660156 202.878906 110.21875 210.199219 C 110.773438 217.519531 105.917969 229.523438 103.054688 220.046875 C 100.195312 210.558594 102.820312 203.863281 102.15625 194.984375 C 101.496094 186.105469 104.09375 180.644531 105.738281 172.605469 Z M 266.921875 187.824219 C 268.957031 198.902344 267.441406 202.609375 268.714844 214.675781 C 269.984375 226.738281 259.5 225.433594 260.359375 214.074219 C 261.21875 202.714844 256.804688 199.332031 257.074219 188.71875 C 260.351562 188.378906 264.011719 189.542969 266.921875 187.824219 Z M 315.277344 141.277344 C 315.941406 154.507812 332.917969 147.9375 332.292969 160.074219 C 331.664062 172.210938 331.816406 183.535156 331.398438 194.984375 C 330.976562 206.429688 332.792969 217.753906 319.695312 219.085938 C 306.582031 220.410156 298.8125 220.070312 286.625 217.359375 C 285.351562 207.101562 289.472656 199.011719 288.414062 188.71875 C 287.359375 178.425781 288.046875 174.960938 296.699219 167.460938 C 305.339844 159.949219 294.503906 159.753906 289.535156 167.460938 C 284.554688 175.167969 278.933594 176.527344 271.679688 180.941406 C 264.417969 185.34375 252.417969 182.746094 243.640625 183.347656 C 234.867188 183.945312 225.222656 177.761719 233.792969 169.027344 C 264.183594 176.617188 295.28125 163.503906 315.277344 141.277344 Z M 133.5 182.453125 C 135.308594 189.503906 132.886719 212.109375 131.160156 215.257812 C 129.199219 218.824219 124.964844 221.84375 122.78125 217.332031 C 118.671875 208.847656 121.859375 184.265625 123.617188 182.070312 C 125.535156 179.675781 129.019531 179.234375 133.5 182.453125 Z M 58.28125 194.984375 C 51.664062 199.40625 48.285156 206.960938 48.429688 214.675781 C 45.207031 208.625 42.351562 201.277344 41.285156 193.175781 C 40.226562 185.066406 35.785156 174.890625 45.804688 177.914062 C 55.828125 180.929688 51.851562 187.839844 58.28125 194.984375 Z M 283.042969 181.558594 C 282.9375 184.855469 283.097656 188.210938 283.089844 191.527344 C 283.085938 194.839844 282.914062 198.117188 282.148438 201.25 C 282.046875 195.691406 276.175781 184.367188 283.042969 181.558594 Z M 101.261719 149.335938 C 93.992188 141.671875 82.519531 156.433594 91.207031 162.070312 C 99.890625 167.710938 100.753906 172.742188 98.574219 182.453125 C 96.410156 192.164062 97.894531 202.414062 84.25 197.667969 C 87.265625 193.703125 88.707031 190.570312 90.320312 185.835938 C 91.921875 181.089844 91.234375 175.390625 89.820312 170.621094 C 88.402344 165.847656 87.8125 162.535156 84.023438 158.507812 C 80.226562 154.492188 75.375 155.976562 69.921875 154.707031 C 64.46875 153.433594 67.691406 144.214844 73.503906 145.753906 C 79.316406 147.292969 84.429688 143.894531 89.683594 144.027344 C 94.949219 144.160156 97.3125 139.605469 99.472656 135.910156 C 107.496094 137.421875 112.6875 141.53125 120.980469 143.050781 C 129.28125 144.5625 136.597656 147.582031 146.035156 146.648438 C 155.472656 145.71875 161.472656 145.308594 172.003906 143.964844 C 182.535156 142.621094 179.695312 151.617188 170.152344 152.851562 C 160.605469 154.078125 154.488281 155.742188 145.4375 156.789062 C 136.382812 157.839844 127.769531 156.226562 119.46875 155.304688 C 111.167969 154.382812 108.472656 142.128906 101.261719 149.335938 Z M 74.398438 159.179688 C 84.097656 161.003906 87.464844 171.367188 85.9375 180.460938 C 84.414062 189.550781 78 197.367188 68.128906 194.089844 C 48.394531 187.527344 53.757812 155.304688 74.398438 159.179688 Z M 351.097656 149.335938 C 350.488281 156.128906 351.914062 163.15625 351.097656 169.921875 C 350.28125 176.6875 354.507812 184.171875 346.011719 186.320312 C 337.523438 188.46875 336.484375 184.664062 337.664062 177.082031 C 338.839844 169.492188 337.59375 163.71875 336.789062 156.476562 C 335.980469 149.226562 345.949219 150.652344 351.097656 149.335938 Z M 223.046875 162.761719 C 229.851562 163.925781 227.585938 176.742188 223.019531 177.054688 C 218.453125 177.378906 209.058594 174.191406 208.789062 168.058594 C 208.511719 161.9375 225.660156 171.773438 223.046875 162.761719 Z M 62.757812 144.859375 C 66.796875 158.277344 49.398438 160.691406 50.222656 173.5 C 41.507812 174.128906 35.570312 169.132812 37.980469 160.371094 C 40.390625 151.609375 37.414062 143.058594 38.578125 134.117188 C 45.546875 139.625 53.175781 145.269531 62.757812 144.859375 Z M 107.53125 152.019531 C 109.726562 155.832031 109.511719 159.796875 106.707031 163.726562 C 103.894531 167.648438 99.300781 162.546875 96.113281 160.746094 C 92.925781 158.949219 91.914062 150.132812 96.980469 152.71875 C 102.058594 155.3125 104.476562 156.359375 107.53125 152.019531 Z M 184.539062 148.441406 C 183.203125 144.589844 185.445312 142.132812 188.589844 141.1875 C 191.730469 140.242188 195.773438 140.808594 198.035156 143.007812 C 202.558594 147.390625 188.4375 149.945312 184.539062 148.441406 Z M 329.605469 135.015625 C 333.332031 135.460938 337.46875 143.875 333.851562 146.417969 C 330.242188 148.957031 322.453125 148.289062 320.382812 143.339844 C 318.304688 138.398438 329.328125 140.105469 329.605469 135.015625 Z M 263.34375 68.777344 C 258.292969 80.941406 272.226562 91.046875 278.339844 79.296875 C 284.464844 67.542969 293.851562 70.34375 298.265625 80.414062 C 292.265625 84.21875 286.480469 80.386719 280.160156 83.796875 C 273.835938 87.207031 281.152344 93.796875 282.074219 98.386719 C 283.007812 102.96875 279.90625 112.628906 282.84375 117.308594 C 285.773438 122 285.933594 128.902344 292.890625 129.644531 C 288.21875 139.800781 274.4375 143.1875 264.21875 145.738281 C 253.992188 148.277344 254.988281 140.292969 256.472656 133.519531 C 257.960938 126.742188 258.765625 120.28125 258.863281 113.53125 C 258.964844 106.785156 256.582031 100.824219 255.292969 94.726562 C 254.003906 88.632812 262.222656 80.585938 254.386719 78.625 C 251.65625 84.011719 242.941406 80.628906 238.207031 79.582031 C 233.460938 78.542969 225.972656 78.050781 223.941406 73.253906 C 236.378906 69.128906 250.152344 70.03125 263.34375 68.777344 Z M 348.410156 101 C 347.992188 107.75 353.875 111.824219 356.445312 117.140625 C 359.023438 122.445312 361.519531 131.710938 358.457031 137 C 355.394531 142.300781 348.636719 146.320312 342.4375 146.050781 C 336.242188 145.773438 338.148438 132.875 344.902344 132.398438 C 351.644531 131.917969 347.175781 113.523438 341.246094 116.21875 C 345.617188 123.269531 340.539062 134.800781 332.515625 129.417969 C 324.492188 124.039062 327.394531 115.617188 330.5 108.160156 C 337.648438 109.28125 342.769531 103.75 348.410156 101 Z M 250.804688 145.753906 C 240.363281 145.746094 230.21875 144.464844 220.359375 142.175781 C 223.886719 132.765625 232.199219 124.121094 227.523438 113.53125 C 222.859375 102.933594 219.214844 92.542969 222.152344 80.414062 C 231.105469 80.226562 231.984375 86.914062 241.914062 85.722656 C 251.851562 84.523438 249.863281 92.585938 251.636719 100.167969 C 253.410156 107.757812 255.039062 114.632812 253.492188 122.484375 C 251.941406 130.332031 251.199219 137.664062 250.804688 145.753906 Z M 172.003906 87.574219 C 174.367188 95.203125 171.796875 101.761719 172.898438 109.953125 C 174 118.140625 171.351562 123.78125 172.003906 132.328125 C 172.65625 140.875 163.308594 139.675781 156.78125 140.382812 C 150.253906 141.089844 140.027344 143.917969 139.765625 135.910156 C 139.507812 127.898438 136.882812 123.628906 136.203125 116.199219 C 135.53125 108.761719 136.285156 102.164062 138.871094 95.632812 C 150.550781 102.039062 163.140625 95.820312 172.003906 87.574219 Z M 135.289062 141.277344 C 123.496094 139.480469 111.792969 135.460938 101.261719 130.539062 C 110.15625 125.5625 113.484375 122.472656 124.605469 120.753906 C 135.730469 119.046875 134.207031 131.710938 135.289062 141.277344 Z M 63.652344 101 C 67.128906 107.160156 65.175781 110.066406 67.234375 117.113281 C 69.292969 124.15625 65.472656 126.207031 59.453125 123.101562 C 53.425781 120.003906 58.65625 109.996094 54.027344 107.9375 C 49.386719 105.886719 51.109375 117.988281 52.890625 121.605469 C 54.664062 125.230469 59.445312 129.355469 64.558594 129.632812 C 69.671875 129.921875 78.222656 130.65625 76.386719 137 C 74.558594 143.347656 67.53125 140.660156 61.863281 140.382812 C 56.195312 140.105469 51.976562 137.996094 47.464844 135.085938 C 42.941406 132.175781 42.566406 125.964844 40.433594 121.523438 C 38.3125 117.078125 46.351562 110.695312 45.546875 107.070312 C 44.730469 103.4375 43.40625 93.609375 49.039062 95.039062 C 54.671875 96.472656 56.5625 103.722656 63.652344 101 Z M 87.832031 131.433594 C 91.875 131.707031 94.03125 133.394531 94.074219 135.261719 C 94.117188 137.132812 92.046875 139.183594 87.632812 140.1875 C 78.796875 142.183594 79.136719 130.851562 87.832031 131.433594 Z M 211.40625 99.210938 C 221.632812 101.585938 224.738281 113.0625 222.65625 123.089844 C 220.570312 133.121094 213.292969 141.703125 202.746094 138.296875 C 181.648438 131.488281 188.957031 93.992188 211.40625 99.210938 Z M 189.914062 136.804688 C 185.035156 137.914062 176.535156 140.464844 176.480469 134.117188 C 176.4375 127.773438 177.289062 119.699219 182.945312 123.179688 C 188.605469 126.652344 187.578125 131.578125 189.914062 136.804688 Z M 326.921875 128.75 C 325.058594 131.425781 322.351562 135.820312 317.964844 135.015625 C 320.125 132.148438 313.03125 128.183594 316.40625 126.285156 C 319.78125 124.398438 324.089844 127.511719 326.921875 128.75 Z M 302.742188 107.265625 C 304.488281 109.539062 303.851562 113.453125 300.953125 114.425781 C 301.613281 119.152344 307.945312 122.375 312.59375 122.484375 C 309.0625 124.40625 304.632812 125.597656 300.953125 127.851562 C 298.015625 122.464844 290.707031 125.5625 288.488281 118.832031 C 286.257812 112.109375 285.011719 107.277344 286.625 100.105469 C 292.246094 99.183594 294.164062 101.976562 294.675781 107.277344 C 295.183594 112.574219 300.976562 109.789062 302.742188 107.265625 Z M 94.097656 127.851562 C 90.417969 126.789062 87.265625 124.503906 83.351562 126.0625 C 83.28125 121.828125 87.617188 123.117188 89.550781 119.726562 C 91.476562 116.324219 88.152344 112.90625 88.726562 109.058594 C 95.378906 115.421875 97.410156 106.667969 98.574219 101 C 110.40625 98.890625 109.625 106.226562 109.027344 115.921875 C 108.425781 125.617188 97.179688 122.207031 94.097656 127.851562 Z M 72.609375 109.058594 C 72.035156 111.570312 74.542969 114.773438 76.46875 117.84375 C 78.398438 120.914062 79.75 123.851562 76.859375 125.839844 C 71.078125 129.804688 71.496094 112.019531 72.609375 109.058594 Z M 321.546875 113.53125 C 322.863281 113.167969 323.589844 115.21875 323.609375 117.328125 C 323.632812 119.441406 322.953125 121.613281 321.457031 121.5 C 318.464844 121.265625 320.769531 115.042969 321.546875 113.53125 Z M 93.203125 104.582031 C 88.859375 103.5625 84.605469 104.976562 83.425781 109.128906 C 82.234375 113.273438 87.9375 117.507812 82.457031 118.902344 C 79.386719 113.441406 77.34375 109.289062 77.085938 102.792969 C 76.824219 96.292969 79.164062 91.703125 84.875 88.203125 C 90.589844 84.703125 97.019531 85.910156 103.117188 87.511719 C 109.222656 89.113281 113.933594 97.546875 105.738281 96.527344 C 97.546875 95.503906 92.613281 95.101562 93.203125 104.582031 Z M 184.539062 52.667969 C 186.359375 65.996094 207.789062 66.730469 208.71875 52.667969 C 218.703125 54.1875 244.429688 49.4375 236.476562 66.09375 C 230.71875 66.757812 222.902344 65.851562 219.535156 71.535156 C 216.167969 77.226562 217.199219 85.515625 216.777344 92.050781 C 216.355469 98.585938 204.402344 92.148438 200.058594 95.03125 C 195.714844 97.914062 188.714844 100.777344 187.855469 106.101562 C 186.984375 111.429688 183.527344 122.3125 178.496094 115.992188 C 173.472656 109.664062 179.113281 101.125 177.378906 93.839844 C 175.640625 86.554688 178.09375 80.171875 174.886719 73.058594 C 171.683594 65.941406 165.566406 68.511719 158.574219 66.09375 C 151.578125 63.675781 154.964844 52.28125 163.050781 54.457031 C 171.136719 56.632812 176.3125 49.742188 184.539062 52.667969 Z M 163.945312 72.359375 C 157.113281 78.785156 146.886719 80.066406 137.976562 77.730469 C 132.183594 68.304688 134.90625 80.96875 135.289062 87.574219 C 135.675781 94.179688 130.75 101.269531 131.707031 109.058594 C 132.667969 116.84375 119.863281 117.910156 113.800781 117.113281 C 111.570312 105.878906 120.453125 92.839844 110.011719 85.992188 C 99.570312 79.144531 90.175781 79.1875 79.769531 84.890625 C 83.667969 75.304688 89.773438 77.675781 97.753906 69.746094 C 105.738281 61.816406 111.625 76.78125 119.378906 78.417969 C 127.132812 80.066406 126.378906 59.640625 136.203125 66.074219 C 146.035156 72.503906 154.597656 67.050781 163.945312 72.359375 Z M 299.160156 102.792969 C 300.878906 93.445312 284.5625 97.261719 283.667969 91.425781 C 282.773438 85.589844 297.800781 85.910156 303.636719 84.890625 C 309.476562 83.878906 318.644531 91.066406 318.84375 97.4375 C 319.039062 103.820312 318.871094 117.355469 310.800781 117.113281 C 302.722656 116.871094 313.191406 98.039062 299.160156 102.792969 Z M 42.160156 92.945312 C 39.519531 94.4375 39.851562 99.699219 39.882812 104.3125 C 39.917969 108.929688 39.65625 112.898438 35.820312 111.796875 C 28.15625 109.59375 36.351562 92.929688 42.160156 92.945312 Z M 349.304688 95.632812 C 351.292969 95.308594 354.835938 98.21875 357.367188 101.566406 C 359.894531 104.917969 361.414062 108.707031 359.355469 110.148438 C 355.234375 113.039062 352.519531 97.070312 349.304688 95.632812 Z M 326.023438 107.265625 C 324.300781 107.15625 323.988281 105.882812 324.152344 104.378906 C 324.316406 102.875 324.953125 101.140625 325.128906 100.105469 C 329.722656 100.242188 326.175781 104.8125 326.023438 107.265625 Z M 335.875 79.519531 C 335.265625 86.464844 335.328125 89.667969 342.214844 92.875 C 349.089844 96.078125 335.992188 103.882812 333.1875 103.6875 C 330.671875 100.886719 334.046875 97.394531 332.292969 94.734375 C 324.324219 99.175781 322.78125 91.371094 319.085938 86.457031 C 315.378906 81.550781 319.480469 69.066406 325.730469 72.65625 C 331.980469 76.242188 327.582031 88.210938 335.875 79.519531 Z M 72.609375 92.945312 C 72.867188 96.445312 72.078125 99.675781 70.816406 102.792969 C 67.96875 101.117188 67.773438 97.421875 66.339844 94.734375 C 68.34375 93.851562 70.332031 92.929688 72.609375 92.945312 Z M 74.398438 65.199219 C 76.734375 71.707031 76.40625 76.421875 74.417969 83.117188 C 72.4375 89.820312 65.371094 87.261719 60.964844 89.367188 C 62.355469 91.433594 62.203125 94.449219 60.964844 96.527344 C 58.414062 95.316406 51.742188 93.742188 51.324219 90.054688 C 50.902344 86.359375 57.941406 84.136719 60.070312 82.203125 C 59.613281 78.847656 55.40625 75.949219 58.28125 72.359375 C 60.597656 73.585938 61.675781 76.78125 64.546875 75.042969 C 64.207031 71.8125 64.960938 68.878906 66.339844 66.09375 C 69.179688 66.300781 71.820312 66.050781 74.398438 65.199219 Z M 171.109375 75.042969 C 173.707031 81.785156 166.453125 86.714844 161.1875 89.292969 C 155.914062 91.863281 147.53125 98.726562 141.363281 91.351562 C 135.183594 83.976562 146.992188 83.207031 153.21875 84.011719 C 159.449219 84.828125 164.75 74.4375 171.109375 75.042969 Z M 344.828125 88.46875 C 337.039062 88.597656 345.078125 70.710938 333.1875 75.941406 C 334.726562 62.621094 313.863281 73.09375 316.175781 59.828125 C 325.136719 62.164062 337.128906 54.886719 345.035156 62.308594 C 352.941406 69.726562 348.257812 80.441406 344.828125 88.46875 Z M 77.085938 52.667969 C 81.921875 66.09375 59.792969 56.765625 60.070312 68.777344 C 52.496094 67.097656 51.5625 76.394531 53.804688 81.308594 C 46.828125 79.035156 42.351562 65.808594 48.652344 57.367188 C 54.96875 48.933594 68.453125 53.527344 77.085938 52.667969 Z M 313.488281 76.835938 C 314.003906 78.789062 313.898438 79.988281 313.542969 80.628906 C 313.191406 81.269531 312.585938 81.355469 312.09375 81.085938 C 311.113281 80.550781 310.601562 78.59375 313.488281 76.835938 Z M 268.714844 79.519531 C 267.773438 76.171875 267.820312 73.058594 268.714844 69.675781 C 272.214844 68.796875 280.203125 65.277344 278.753906 70.773438 C 277.300781 76.269531 273.226562 78.140625 268.714844 79.519531 Z M 308.113281 77.730469 C 305.554688 78.042969 303.289062 77.488281 300.953125 76.835938 C 301.398438 73.15625 300.753906 69.683594 298.265625 66.988281 C 303.019531 68.375 309.316406 71.6875 308.113281 77.730469 Z M 114.695312 62.511719 C 118 62.046875 120.640625 64.445312 121.804688 67.101562 C 122.964844 69.757812 122.652344 72.667969 120.039062 73.226562 C 114.8125 74.335938 109.582031 63.230469 114.695312 62.511719 Z M 94.097656 62.511719 C 93.808594 63.550781 92.515625 66.933594 90.796875 69.621094 C 89.078125 72.308594 86.933594 74.296875 84.9375 72.546875 C 80.945312 69.054688 90.6875 62.148438 94.097656 62.511719 Z M 293.789062 68.777344 C 288.710938 67.390625 278.457031 65.492188 283.867188 58.863281 C 289.285156 52.238281 286.992188 46.269531 280.160156 45.703125 C 273.328125 45.148438 267.835938 41.496094 266.933594 34.757812 C 266.027344 28.019531 277.847656 27.792969 282.351562 31.875 C 286.847656 35.957031 290.601562 41.523438 290.207031 48.191406 C 289.8125 54.859375 290.699219 62.90625 293.789062 68.777344 Z M 242.746094 65.199219 C 241.714844 62.664062 243.238281 60.089844 242.746094 57.144531 C 246.5625 58.144531 254.808594 54.503906 255.253906 60.75 C 255.710938 66.988281 246.15625 62.828125 242.746094 65.199219 Z M 282.148438 50.878906 C 281.652344 57.394531 273.960938 66.203125 267.757812 64.367188 C 261.542969 62.539062 257.546875 47.027344 261.828125 43.097656 C 266.101562 39.160156 275.484375 54.566406 282.148438 50.878906 Z M 99.472656 64.304688 C 103.394531 56.640625 98.101562 48.945312 99.472656 41.03125 C 100.839844 33.121094 101.59375 28.957031 109.949219 24.652344 C 118.292969 20.339844 123.972656 31.5 117.453125 36.628906 C 110.941406 41.757812 101.773438 41.597656 105.140625 50.582031 C 108.507812 59.570312 110.558594 62.78125 99.472656 64.304688 Z M 150.511719 64.304688 C 148.050781 63.410156 144.136719 63.410156 141.003906 62.628906 C 137.875 61.847656 135.523438 60.28125 136.1875 56.25 C 142.703125 56.238281 153.65625 53.957031 150.511719 64.304688 Z M 126.335938 34.765625 C 132.882812 35.347656 129.199219 46.839844 128.324219 51.96875 C 127.445312 57.097656 119.628906 61.804688 114.917969 57.8125 C 110.21875 53.8125 106.839844 45.167969 113.101562 44.808594 C 119.367188 44.460938 121.507812 34.335938 126.335938 34.765625 Z M 203.34375 51.773438 C 203.875 56.34375 200.480469 58.425781 196.976562 58.328125 C 193.46875 58.226562 189.847656 55.945312 189.914062 51.773438 C 194.273438 53.632812 199.046875 54.164062 203.34375 51.773438 Z M 205.136719 25.816406 C 207.507812 32 207.554688 38.765625 204.015625 44.386719 C 200.472656 50 193.261719 50.484375 189.644531 44.878906 C 186.019531 39.285156 184.496094 34.203125 187.523438 27.902344 C 190.550781 21.589844 199.628906 29.394531 205.136719 25.816406 Z M 129.917969 32.082031 C 128.539062 31.675781 127.34375 30.855469 126.535156 29.765625 C 125.722656 28.675781 125.292969 27.316406 125.441406 25.816406 C 128.199219 26.628906 130.214844 29.082031 129.917969 32.082031 Z M 210.507812 24.921875 C 208.324219 17.207031 201.492188 24.292969 196.164062 21.359375 C 190.828125 18.421875 184.90625 19.925781 182.75 25.816406 C 180.832031 8.945312 212.632812 7.046875 210.507812 24.921875 Z M 210.507812 24.921875 " fill-opacity="1" fill-rule="nonzero"/></g></svg>