<svg xmlns="http://www.w3.org/2000/svg" xmlns:xlink="http://www.w3.org/1999/xlink" width="500" zoomAndPan="magnify" viewBox="0 0 375 374.999991" height="500" preserveAspectRatio="xMidYMid meet" version="1.0"><defs><clipPath id="3ac6828d01"><path d="M 0 36 L 375 36 L 375 342.476562 L 0 342.476562 Z M 0 36 " clip-rule="nonzero"/></clipPath></defs><g clip-path="url(#3ac6828d01)"><path fill="#000000" d="M 371.503906 228.441406 C 371.492188 228.441406 371.480469 228.441406 371.46875 228.441406 L 280.335938 229.40625 C 281.113281 227.945312 281.476562 226.535156 281.628906 225.46875 C 281.976562 223.046875 281.566406 220.597656 280.695312 218.53125 C 285.96875 216.707031 289.132812 212.488281 290.007812 208.1875 C 291.367188 201.511719 287.691406 195.398438 281.390625 193.6875 C 229.285156 177.074219 220.964844 170.824219 214.207031 163.179688 C 212.332031 161.0625 211.644531 158.816406 212.210938 156.683594 C 212.769531 154.59375 214.539062 152.816406 216.824219 152.050781 C 228.734375 148.054688 249.0625 148.011719 249.796875 148.011719 C 249.8125 148.011719 249.816406 148.011719 249.824219 148.011719 C 249.863281 148.011719 249.90625 148.011719 249.949219 148.007812 C 250.816406 147.96875 337.039062 144.320312 371.375 145.78125 C 373.050781 145.925781 374.402344 144.582031 374.46875 142.941406 C 374.535156 141.304688 373.269531 139.917969 371.628906 139.847656 C 364.832031 139.558594 356.023438 139.472656 346.265625 139.507812 C 346.3125 131.308594 345.628906 123.222656 344.140625 115.4375 C 336.285156 74.398438 307.699219 43.976562 271.320312 37.929688 C 240.636719 32.835938 210.261719 46.589844 187.5 75.773438 C 164.730469 46.578125 134.378906 32.824219 103.683594 37.929688 C 67.300781 43.972656 38.714844 74.398438 30.859375 115.441406 C 29.019531 125.0625 28.414062 135.09375 28.929688 145.289062 L 3.496094 145.289062 C 1.855469 145.289062 0.53125 146.617188 0.53125 148.257812 C 0.53125 149.902344 1.855469 151.226562 3.496094 151.226562 L 39.109375 151.226562 C 40.75 151.226562 42.078125 152.558594 42.078125 154.199219 L 42.078125 240.410156 C 22.421875 240.957031 3.792969 240.328125 3.601562 240.324219 C 1.84375 240.167969 0.589844 241.546875 0.53125 243.1875 C 0.472656 244.832031 1.753906 246.207031 3.394531 246.257812 C 3.535156 246.265625 12.71875 246.578125 24.996094 246.578125 C 30.535156 246.578125 36.703125 246.503906 42.957031 246.320312 C 43.273438 246.84375 43.644531 247.332031 44.125 247.746094 C 45.570312 248.996094 47.640625 249.648438 50.078125 249.648438 C 50.714844 249.648438 51.378906 249.605469 52.054688 249.515625 C 56.53125 248.921875 60.953125 248.769531 65.1875 248.753906 C 65.3125 254.53125 69.074219 258.484375 73.484375 259.574219 C 74.390625 259.800781 75.328125 259.914062 76.273438 259.914062 C 78.015625 259.914062 79.792969 259.484375 81.511719 258.699219 C 106.9375 287.625 140.246094 314.636719 180.597656 339.003906 L 185.964844 342.242188 C 186.4375 342.527344 186.96875 342.671875 187.5 342.671875 C 188.03125 342.671875 188.558594 342.527344 189.035156 342.242188 L 194.402344 339.003906 C 245.421875 308.195312 286.105469 272.257812 312.214844 235.007812 L 371.539062 234.378906 C 373.175781 234.363281 374.492188 233.019531 374.472656 231.378906 C 374.453125 229.75 373.128906 228.441406 371.503906 228.441406 Z M 95.007812 155.941406 C 95.40625 155.703125 95.78125 155.441406 96.171875 155.195312 C 96.214844 155.167969 96.261719 155.144531 96.300781 155.113281 C 103.851562 150.332031 109.835938 144.007812 113.589844 139.402344 C 118.269531 133.660156 125.207031 130.175781 132.625 129.835938 C 142.195312 129.425781 151.023438 132 156.515625 134.132812 C 142.714844 142.222656 120.742188 163.832031 117.882812 166.671875 C 101.808594 182.351562 88.660156 184.324219 82.296875 181.230469 C 81.851562 181.015625 80.480469 180.351562 80.300781 177.710938 C 79.929688 172.046875 85.324219 162.363281 95.007812 155.941406 Z M 98.460938 237.523438 C 98.472656 237.304688 98.484375 236.941406 98.496094 236.492188 C 104.417969 235.816406 110.054688 235.429688 115.382812 235.265625 C 108.078125 249.394531 100.226562 253.015625 95.441406 251.582031 C 93.246094 250.921875 91.683594 249.21875 91.300781 247.300781 C 95.398438 245.796875 98.144531 242.9375 98.460938 237.523438 Z M 142.34375 236.183594 C 130.71875 247.261719 124.242188 245.625 122.394531 244.75 C 120.105469 243.652344 119.308594 241.671875 119.289062 240.570312 C 120.210938 238.933594 121.132812 237.105469 122.046875 235.15625 C 129.574219 235.167969 136.363281 235.597656 142.34375 236.183594 Z M 115.457031 246.507812 C 116.515625 247.9375 117.96875 249.214844 119.835938 250.109375 C 121.269531 250.792969 123.214844 251.382812 125.667969 251.382812 C 131.164062 251.382812 139.230469 248.410156 149.847656 237.046875 C 154.238281 237.621094 158.023438 238.238281 161.125 238.742188 C 170.730469 240.304688 179.6875 242.984375 187.746094 246.707031 C 202.230469 253.402344 214.386719 253.394531 216.171875 253.324219 C 216.929688 253.386719 217.660156 253.417969 218.363281 253.417969 C 222.613281 253.417969 225.800781 252.265625 227.871094 249.984375 C 228.972656 248.765625 229.566406 247.4375 229.871094 246.226562 C 234.0625 246.789062 236.449219 246.902344 236.6875 246.914062 C 237.558594 246.960938 238.390625 246.980469 239.195312 246.980469 C 253.074219 246.980469 257.800781 240.550781 259.398438 236.605469 C 260.921875 236.742188 262.386719 236.832031 263.710938 236.832031 C 267.550781 236.832031 270.554688 236.285156 272.9375 235.429688 L 278.769531 235.367188 C 256.726562 262.128906 226.066406 287.84375 187.5 311.886719 C 156.917969 292.820312 131.21875 272.578125 110.933594 251.679688 C 112.414062 250.28125 113.929688 248.570312 115.457031 246.507812 Z M 214.941406 146.421875 C 210.726562 147.832031 207.566406 151.09375 206.480469 155.144531 C 205.382812 159.234375 206.550781 163.488281 209.757812 167.113281 C 217.167969 175.496094 226.03125 182.273438 279.707031 199.378906 C 283.632812 200.445312 284.78125 204.078125 284.1875 206.996094 C 283.457031 210.578125 279.976562 214.382812 272.667969 213.402344 C 272.234375 213.316406 228.839844 204.433594 205.34375 195.710938 C 203.808594 195.136719 202.101562 195.921875 201.53125 197.460938 C 200.960938 199 201.742188 200.707031 203.28125 201.277344 C 227.210938 210.164062 269.691406 218.855469 271.675781 219.253906 C 272.625 219.386719 273.523438 219.433594 274.402344 219.449219 C 275.128906 220.117188 276.46875 223.015625 275.453125 225.816406 C 273.914062 230.058594 267.40625 231.75 257.769531 230.464844 C 257.339844 230.390625 215.199219 222.71875 200.78125 217.304688 C 199.242188 216.734375 197.535156 217.503906 196.957031 219.039062 C 196.386719 220.578125 197.160156 222.289062 198.695312 222.867188 C 211.265625 227.582031 242.597656 233.667969 253.277344 235.671875 C 251.6875 238.167969 247.585938 241.523438 236.960938 240.96875 C 236.808594 240.964844 221.433594 240.222656 197.941406 232.542969 C 196.375 232.023438 194.707031 232.886719 194.199219 234.445312 C 193.6875 236.003906 194.539062 237.683594 196.097656 238.191406 C 207.511719 241.917969 216.96875 244.050781 223.902344 245.277344 C 223.792969 245.519531 223.667969 245.761719 223.46875 245.984375 C 222.378906 247.1875 219.902344 247.683594 216.511719 247.382812 C 216.378906 247.371094 216.238281 247.363281 216.121094 247.375 C 216 247.367188 204.285156 247.800781 190.226562 241.304688 C 181.683594 237.359375 172.210938 234.523438 162.070312 232.871094 C 153.160156 231.421875 138.78125 229.097656 120.304688 229.222656 C 120.230469 229.222656 120.164062 229.222656 120.089844 229.226562 C 113.429688 229.28125 106.234375 229.660156 98.574219 230.511719 C 98.671875 218.066406 98.660156 193.417969 98.652344 186.488281 C 105.566406 184.089844 113.507812 179.238281 122.046875 170.90625 C 134.925781 158.125 156.820312 138.566406 164.339844 137.0625 C 164.53125 137.023438 164.703125 136.9375 164.882812 136.863281 C 164.90625 136.855469 164.929688 136.847656 164.953125 136.835938 C 165.308594 136.679688 165.636719 136.476562 165.902344 136.199219 C 166.070312 136.039062 176.160156 126.613281 217.414062 129.175781 C 224.144531 129.589844 230.554688 131.75 235.941406 135.421875 C 238.945312 137.46875 241.582031 139.742188 243.835938 142.207031 C 236.449219 142.5 223.824219 143.4375 214.941406 146.421875 Z M 239.28125 130.515625 C 233.015625 126.242188 225.578125 123.726562 217.78125 123.246094 C 181.910156 121.023438 167.964844 127.480469 163.394531 130.632812 C 158.871094 128.449219 146.507812 123.253906 132.363281 123.902344 C 123.257812 124.320312 114.738281 128.597656 108.992188 135.648438 C 106.015625 139.300781 101.527344 144.117188 95.972656 148.167969 C 91.019531 136.714844 80.792969 138.683594 72.414062 140.332031 C 67.335938 141.332031 62.085938 142.371094 57.90625 141.046875 C 57.128906 140.734375 56.402344 140.503906 55.671875 140.265625 C 55.425781 131.503906 56.28125 124.710938 57.097656 120.464844 C 62.820312 90.53125 82.824219 68.484375 108.058594 64.292969 C 133.523438 60.039062 158.230469 75.398438 175.894531 106.402344 C 178.304688 110.625 182.640625 113.144531 187.496094 113.144531 C 192.355469 113.144531 196.691406 110.625 199.097656 106.402344 C 216.769531 75.398438 241.507812 60.050781 266.933594 64.292969 C 292.171875 68.484375 312.171875 90.53125 317.898438 120.464844 C 318.703125 124.660156 319.550781 131.308594 319.335938 139.867188 C 289.035156 140.488281 258.351562 141.714844 251.257812 142.007812 C 248.128906 137.699219 244.136719 133.820312 239.28125 130.515625 Z M 36.691406 116.558594 C 44.074219 77.988281 70.75 49.421875 104.65625 43.789062 C 134.148438 38.871094 163.46875 52.960938 185.109375 82.449219 C 186.226562 83.972656 188.769531 83.972656 189.890625 82.449219 C 211.519531 52.972656 240.859375 38.894531 270.34375 43.789062 C 304.25 49.421875 330.925781 77.988281 338.308594 116.554688 C 339.730469 123.984375 340.378906 131.710938 340.328125 139.546875 C 335.445312 139.59375 330.398438 139.664062 325.285156 139.753906 C 325.484375 130.796875 324.585938 123.796875 323.734375 119.347656 C 317.53125 86.949219 295.621094 63.039062 267.910156 58.4375 C 239.894531 53.753906 212.917969 70.171875 193.941406 103.460938 C 192.605469 105.804688 190.195312 107.207031 187.496094 107.207031 C 184.800781 107.207031 182.390625 105.804688 181.054688 103.460938 C 162.085938 70.175781 135.128906 53.757812 107.085938 58.441406 C 79.375 63.042969 57.464844 86.953125 51.265625 119.351562 C 50.4375 123.664062 49.554688 130.398438 49.691406 139.019531 C 41.777344 138.441406 37.527344 142.730469 35.726562 145.289062 L 34.863281 145.289062 C 34.347656 135.464844 34.921875 125.808594 36.691406 116.558594 Z M 51.277344 243.628906 C 49.246094 243.894531 48.160156 243.433594 48.015625 243.246094 L 48.015625 154.199219 C 48.015625 150.71875 45.992188 147.726562 43.074219 146.261719 C 45.429688 144.835938 49.40625 144.003906 55.890625 146.632812 C 61.730469 148.492188 68.015625 147.257812 73.558594 146.164062 C 83.109375 144.285156 88.160156 143.707031 90.953125 151.535156 C 80.75 158.617188 73.820312 169.648438 74.378906 178.109375 C 74.640625 182.035156 76.535156 185.046875 79.714844 186.585938 C 82.0625 187.722656 84.957031 188.394531 88.300781 188.394531 C 89.695312 188.394531 91.175781 188.265625 92.71875 188.015625 C 92.734375 205.425781 92.710938 234.226562 92.535156 237.179688 C 92.363281 240.019531 90.890625 241.515625 87.636719 242.265625 C 87.632812 242.265625 87.632812 242.265625 87.628906 242.265625 C 84.507812 242.984375 79.75 243.023438 72.910156 242.886719 C 66.378906 242.75 58.964844 242.601562 51.277344 243.628906 Z M 74.910156 253.8125 C 73.054688 253.355469 71.214844 251.761719 71.101562 248.796875 C 71.660156 248.804688 72.25 248.8125 72.796875 248.820312 C 76.59375 248.894531 80.320312 248.964844 83.71875 248.726562 C 82.722656 250.515625 81.539062 251.804688 80.28125 252.65625 C 80.257812 252.671875 80.230469 252.679688 80.207031 252.699219 C 80.203125 252.699219 80.203125 252.703125 80.199219 252.707031 C 78.429688 253.875 76.546875 254.222656 74.910156 253.8125 Z M 191.335938 333.917969 L 187.5 336.230469 L 183.664062 333.917969 C 144.015625 309.976562 111.296875 283.492188 86.3125 255.171875 C 86.84375 254.601562 87.335938 253.964844 87.8125 253.289062 C 89.289062 255.101562 91.300781 256.542969 93.738281 257.273438 C 94.578125 257.527344 95.882812 257.804688 97.523438 257.804688 C 99.835938 257.804688 102.828125 257.234375 106.164062 255.296875 C 127.207031 277.085938 154 298.144531 185.9375 317.90625 C 186.414062 318.207031 186.957031 318.351562 187.496094 318.351562 C 188.039062 318.351562 188.582031 318.203125 189.058594 317.90625 C 230.761719 292.105469 263.503906 264.308594 286.449219 235.28125 L 304.847656 235.089844 C 279.140625 270.425781 240.046875 304.503906 191.335938 333.917969 Z M 191.335938 333.917969 " fill-opacity="1" fill-rule="nonzero"/></g></svg>